{
  "accessors": [
    {
      "bufferView": 2,
      "componentType": 5126,
      "count": 2521,
      "max": [
        0.8093680143356323,
        0.27686598896980286,
        4.366826057434082
      ],
      "min": [
        -0.5282040238380432,
        -0.5619069933891296,
        0.02853900007903576
      ],
      "type": "VEC3"
    },
    {
      "bufferView": 2,
      "byteOffset": 30252,
      "componentType": 5126,
      "count": 2521,
      "max": [
        0.9997182488441467,
        0.7036055326461792,
        0.6674997210502625
      ],
      "min": [
        0.7099056243896484,
        -0.6346184611320496,
        -0.670215904712677
      ],
      "type": "VEC3"
    },
    {
      "bufferView": 1,
      "componentType": 5126,
      "count": 2521,
      "max": [
        0.9974210262298584,
        0.993399977684021
      ],
      "min": [
        0.008086999878287315,
        0.0038530000019818544
      ],
      "type": "VEC2"
    },
    {
      "bufferView": 0,
      "componentType": 5125,
      "count": 12225,
      "type": "SCALAR"
    },
    {
      "bufferView": 2,
      "byteOffset": 60504,
      "componentType": 5126,
      "count": 222,
      "max": [
        0.5155979990959167,
        0.27458399534225464,
        0.5870850086212158
      ],
      "min": [
        -0.5726709961891174,
        -0.617563009262085,
        -0.002512000035494566
      ],
      "type": "VEC3"
    },
    {
      "bufferView": 2,
      "byteOffset": 63168,
      "componentType": 5126,
      "count": 222,
      "max": [
        0.9988877177238464,
        0.7014452815055847,
        0.66448575258255
      ],
      "min": [
        0.7126460075378418,
        -0.6291027069091797,
        -0.6695853471755981
      ],
      "type": "VEC3"
    },
    {
      "bufferView": 1,
      "byteOffset": 20168,
      "componentType": 5126,
      "count": 222,
      "max": [
        0.9837340116500854,
        0.9960479736328125
      ],
      "min": [
        0.0125730000436306,
        0.021057000383734703
      ],
      "type": "VEC2"
    },
    {
      "bufferView": 0,
      "byteOffset": 48900,
      "componentType": 5125,
      "count": 984,
      "type": "SCALAR"
    },
    {
      "bufferView": 2,
      "byteOffset": 65832,
      "componentType": 5126,
      "count": 300,
      "max": [
        0.6278939843177795,
        0.27556100487709045,
        2.8160359859466553
      ],
      "min": [
        -0.33750399947166443,
        -0.47279301285743713,
        1.4326339960098267
      ],
      "type": "VEC3"
    },
    {
      "bufferView": 2,
      "byteOffset": 69432,
      "componentType": 5126,
      "count": 300,
      "max": [
        0.9981064200401306,
        0.6966046690940857,
        0.659704864025116
      ],
      "min": [
        0.7145935297012329,
        -0.633783757686615,
        -0.6676308512687683
      ],
      "type": "VEC3"
    },
    {
      "bufferView": 1,
      "byteOffset": 21944,
      "componentType": 5126,
      "count": 300,
      "max": [
        0.9848629832267761,
        0.9636989831924438
      ],
      "min": [
        0.015122000128030777,
        0.02090499922633171
      ],
      "type": "VEC2"
    },
    {
      "bufferView": 0,
      "byteOffset": 52836,
      "componentType": 5125,
      "count": 1158,
      "type": "SCALAR"
    },
    {
      "bufferView": 2,
      "byteOffset": 73032,
      "componentType": 5126,
      "count": 1340,
      "max": [
        0.8041419982910156,
        0.5966669917106628,
        3.7809720039367676
      ],
      "min": [
        -0.41777700185775757,
        -0.604748010635376,
        1.7070989608764648
      ],
      "type": "VEC3"
    },
    {
      "bufferView": 2,
      "byteOffset": 89112,
      "componentType": 5126,
      "count": 1340,
      "max": [
        0.9984495043754578,
        0.7028127312660217,
        0.6676938533782959
      ],
      "min": [
        0.7104357481002808,
        -0.6327085494995117,
        -0.670911431312561
      ],
      "type": "VEC3"
    },
    {
      "bufferView": 1,
      "byteOffset": 24344,
      "componentType": 5126,
      "count": 1340,
      "max": [
        0.9935449957847595,
        0.9851679801940918
      ],
      "min": [
        0.007065000012516975,
        0.0025790000800043344
      ],
      "type": "VEC2"
    },
    {
      "bufferView": 0,
      "byteOffset": 57468,
      "componentType": 5125,
      "count": 5586,
      "type": "SCALAR"
    },
    {
      "bufferView": 2,
      "byteOffset": 105192,
      "componentType": 5126,
      "count": 612,
      "max": [
        0.5388339757919312,
        0.2755970060825348,
        4.6326751708984375
      ],
      "min": [
        -0.12620499730110168,
        -0.3737339973449707,
        3.9606668949127197
      ],
      "type": "VEC3"
    },
    {
      "bufferView": 2,
      "byteOffset": 112536,
      "componentType": 5126,
      "count": 612,
      "max": [
        0.9963210225105286,
        0.7021761536598206,
        0.6687055826187134
      ],
      "min": [
        0.7105291485786438,
        -0.6319800615310669,
        -0.6729283332824707
      ],
      "type": "VEC3"
    },
    {
      "bufferView": 1,
      "byteOffset": 35064,
      "componentType": 5126,
      "count": 612,
      "max": [
        0.9942470192909241,
        0.9906619787216187
      ],
      "min": [
        0.007400999777019024,
        0.007675000000745058
      ],
      "type": "VEC2"
    },
    {
      "bufferView": 0,
      "byteOffset": 79812,
      "componentType": 5125,
      "count": 1959,
      "type": "SCALAR"
    },
    {
      "bufferView": 2,
      "byteOffset": 119880,
      "componentType": 5126,
      "count": 982,
      "max": [
        0.538536012172699,
        0.3164759874343872,
        4.539134979248047
      ],
      "min": [
        -0.09910599887371063,
        -0.24583500623703003,
        3.8818960189819336
      ],
      "type": "VEC3"
    },
    {
      "bufferView": 2,
      "byteOffset": 131664,
      "componentType": 5126,
      "count": 982,
      "max": [
        0.9999697208404541,
        0.7018876075744629,
        0.668624997138977
      ],
      "min": [
        0.7118855714797974,
        -0.6317005157470703,
        -0.6674888134002686
      ],
      "type": "VEC3"
    },
    {
      "bufferView": 1,
      "byteOffset": 39960,
      "componentType": 5126,
      "count": 982,
      "max": [
        0.9729920029640198,
        0.9810029864311218
      ],
      "min": [
        0.08085799962282181,
        0.00381499994546175
      ],
      "type": "VEC2"
    },
    {
      "bufferView": 0,
      "byteOffset": 87648,
      "componentType": 5125,
      "count": 2568,
      "type": "SCALAR"
    }
  ],
  "asset": {
    "extras": {
      "author": "PACE GAMING FF (https://sketchfab.com/MDARBAZ_.OR___-PACEGAMINGFF)",
      "license": "CC-BY-4.0 (http://creativecommons.org/licenses/by/4.0/)",
      "source": "https://sketchfab.com/3d-models/freefire-new-female-3d-model-by-pace-gaming-989902f78cc44b4cbc99a969e87b4846",
      "title": "freefire new female 3d model by pace gaming"
    },
    "generator": "Sketchfab-14.64.0",
    "version": "2.0"
  },
  "bufferViews": [
    {
      "buffer": 0,
      "byteLength": 97920,
      "name": "floatBufferViews",
      "target": 34963
    },
    {
      "buffer": 0,
      "byteLength": 47816,
      "byteOffset": 97920,
      "byteStride": 8,
      "name": "floatBufferViews",
      "target": 34962
    },
    {
      "buffer": 0,
      "byteLength": 143448,
      "byteOffset": 145736,
      "byteStride": 12,
      "name": "floatBufferViews",
      "target": 34962
    }
  ],
  "buffers": [
    {
      "byteLength": 289184,
      "uri": "scene.bin"
    }
  ],
  "images": [
    {
      "uri": "textures/mat0_baseColor.png"
    },
    {
      "uri": "textures/mat0.001_baseColor.png"
    },
    {
      "uri": "textures/mat0.002_baseColor.png"
    },
    {
      "uri": "textures/mat0.003_baseColor.png"
    },
    {
      "uri": "textures/mat0.004_baseColor.png"
    },
    {
      "uri": "textures/mat0.005_baseColor.png"
    }
  ],
  "materials": [
    {
      "doubleSided": true,
      "name": "mat0",
      "pbrMetallicRoughness": {
        "baseColorTexture": {
          "index": 0
        },
        "metallicFactor": 0.0
      }
    },
    {
      "doubleSided": true,
      "name": "mat0.001",
      "pbrMetallicRoughness": {
        "baseColorTexture": {
          "index": 1
        },
        "metallicFactor": 0.0
      }
    },
    {
      "doubleSided": true,
      "name": "mat0.002",
      "pbrMetallicRoughness": {
        "baseColorTexture": {
          "index": 2
        },
        "metallicFactor": 0.0,
        "roughnessFactor": 0.6342256411356907
      }
    },
    {
      "doubleSided": true,
      "name": "mat0.003",
      "pbrMetallicRoughness": {
        "baseColorTexture": {
          "index": 3
        },
        "metallicFactor": 0.0
      }
    },
    {
      "doubleSided": true,
      "name": "mat0.004",
      "pbrMetallicRoughness": {
        "baseColorTexture": {
          "index": 4
        },
        "metallicFactor": 0.0
      }
    },
    {
      "doubleSided": true,
      "name": "mat0.005",
      "pbrMetallicRoughness": {
        "baseColorTexture": {
          "index": 5
        },
        "metallicFactor": 0.0
      }
    }
  ],
  "meshes": [
    {
      "name": "Object_0",
      "primitives": [
        {
          "attributes": {
            "NORMAL": 1,
            "POSITION": 0,
            "TEXCOORD_0": 2
          },
          "indices": 3,
          "material": 0,
          "mode": 4
        }
      ]
    },
    {
      "name": "Object_1",
      "primitives": [
        {
          "attributes": {
            "NORMAL": 5,
            "POSITION": 4,
            "TEXCOORD_0": 6
          },
          "indices": 7,
          "material": 1,
          "mode": 4
        }
      ]
    },
    {
      "name": "Object_2",
      "primitives": [
        {
          "attributes": {
            "NORMAL": 9,
            "POSITION": 8,
            "TEXCOORD_0": 10
          },
          "indices": 11,
          "material": 2,
          "mode": 4
        }
      ]
    },
    {
      "name": "Object_3",
      "primitives": [
        {
          "attributes": {
            "NORMAL": 13,
            "POSITION": 12,
            "TEXCOORD_0": 14
          },
          "indices": 15,
          "material": 3,
          "mode": 4
        }
      ]
    },
    {
      "name": "Object_4",
      "primitives": [
        {
          "attributes": {
            "NORMAL": 17,
            "POSITION": 16,
            "TEXCOORD_0": 18
          },
          "indices": 19,
          "material": 4,
          "mode": 4
        }
      ]
    },
    {
      "name": "Object_5",
      "primitives": [
        {
          "attributes": {
            "NORMAL": 21,
            "POSITION": 20,
            "TEXCOORD_0": 22
          },
          "indices": 23,
          "material": 5,
          "mode": 4
        }
      ]
    }
  ],
  "nodes": [
    {
      "children": [
        1
      ],
      "matrix": [
        1.0,
        0.0,
        0.0,
        0.0,
        0.0,
        2.220446049250313e-16,
        -1.0,
        0.0,
        0.0,
        1.0,
        2.220446049250313e-16,
        0.0,
        0.0,
        0.0,
        0.0,
        1.0
      ],
      "name": "Sketchfab_model"
    },
    {
      "children": [
        2,
        3,
        4,
        5,
        6,
        7
      ],
      "name": "3.obj.cleaner.materialmerger.gles"
    },
    {
      "mesh": 0,
      "name": "Object_2"
    },
    {
      "mesh": 1,
      "name": "Object_3"
    },
    {
      "mesh": 2,
      "name": "Object_4"
    },
    {
      "mesh": 3,
      "name": "Object_5"
    },
    {
      "mesh": 4,
      "name": "Object_6"
    },
    {
      "mesh": 5,
      "name": "Object_7"
    }
  ],
  "samplers": [
    {
      "magFilter": 9729,
      "minFilter": 9987,
      "wrapS": 10497,
      "wrapT": 10497
    }
  ],
  "scene": 0,
  "scenes": [
    {
      "name": "Sketchfab_Scene",
      "nodes": [
        0
      ]
    }
  ],
  "textures": [
    {
      "sampler": 0,
      "source": 0
    },
    {
      "sampler": 0,
      "source": 1
    },
    {
      "sampler": 0,
      "source": 2
    },
    {
      "sampler": 0,
      "source": 3
    },
    {
      "sampler": 0,
      "source": 4
    },
    {
      "sampler": 0,
      "source": 5
    }
  ]
}
